<?xml version="1.0" encoding="UTF-8"?>
<!DOCTYPE svg PUBLIC "-//W3C//DTD SVG 1.1//EN" "http://www.w3.org/Graphics/SVG/1.1/DTD/svg11.dtd">
<svg xmlns="http://www.w3.org/2000/svg" version="1.1" width="4000px" height="500px" style="shape-rendering:geometricPrecision; text-rendering:geometricPrecision; image-rendering:optimizeQuality; fill-rule:evenodd; clip-rule:evenodd" xmlns:xlink="http://www.w3.org/1999/xlink">
<g><path style="opacity:1" fill="#1793d1" d="M -0.5,-0.5 C 1332.83,-0.5 2666.17,-0.5 3999.5,-0.5C 3999.5,166.167 3999.5,332.833 3999.5,499.5C 2666.17,499.5 1332.83,499.5 -0.5,499.5C -0.5,332.833 -0.5,166.167 -0.5,-0.5 Z"/></g>
<g><path style="opacity:1" fill="#fefffe" d="M 2786.5,74.5 C 2790.5,74.5 2794.5,74.5 2798.5,74.5C 2798.5,168.167 2798.5,261.833 2798.5,355.5C 2794.5,355.5 2790.5,355.5 2786.5,355.5C 2786.5,261.833 2786.5,168.167 2786.5,74.5 Z"/></g>
<g><path style="opacity:1" fill="#fcfdfe" d="M 261.5,143.5 C 287.528,143.087 313.528,143.587 339.5,145C 362.815,148.984 376.982,162.484 382,185.5C 382.5,265.499 382.667,345.499 382.5,425.5C 378.167,425.5 373.833,425.5 369.5,425.5C 369.5,402.167 369.5,378.833 369.5,355.5C 330.832,355.667 292.165,355.5 253.5,355C 236.293,352.117 223.127,343.283 214,328.5C 211.523,323.069 209.856,317.403 209,311.5C 208.333,270.833 208.333,230.167 209,189.5C 211.389,170.549 221.222,157.049 238.5,149C 246.185,146.661 253.851,144.827 261.5,143.5 Z"/></g>
<g><path style="opacity:1" fill="#f9fcfd" d="M 489.5,143.5 C 511.836,143.333 534.169,143.5 556.5,144C 574.315,143.932 589.481,150.098 602,162.5C 608.005,170.507 611.671,179.507 613,189.5C 613.667,228.5 613.667,267.5 613,306.5C 610.941,328.884 599.441,344.051 578.5,352C 573.968,353.622 569.301,354.622 564.5,355C 526.835,355.5 489.168,355.667 451.5,355.5C 451.5,378.833 451.5,402.167 451.5,425.5C 447.167,425.5 442.833,425.5 438.5,425.5C 438.333,347.499 438.5,269.499 439,191.5C 443.112,162.04 459.945,146.04 489.5,143.5 Z"/></g>
<g><path style="opacity:1" fill="#fbfdfe" d="M 1076.5,143.5 C 1099.17,143.333 1121.84,143.5 1144.5,144C 1174.36,145.146 1191.86,160.313 1197,189.5C 1197.5,268.166 1197.67,346.833 1197.5,425.5C 1193.17,425.5 1188.83,425.5 1184.5,425.5C 1184.5,402.167 1184.5,378.833 1184.5,355.5C 1145.83,355.667 1107.17,355.5 1068.5,355C 1043.53,350.7 1028.37,336.2 1023,311.5C 1022.33,271.5 1022.33,231.5 1023,191.5C 1025.6,169.242 1037.43,154.408 1058.5,147C 1064.56,145.374 1070.56,144.208 1076.5,143.5 Z"/></g>
<g><path style="opacity:1" fill="#fcfdfe" d="M 1253.5,143.5 C 1257.5,143.5 1261.5,143.5 1265.5,143.5C 1265.33,197.168 1265.5,250.834 1266,304.5C 1267.62,322.258 1276.78,334.091 1293.5,340C 1298.41,341.476 1303.41,342.476 1308.5,343C 1329.5,343.667 1350.5,343.667 1371.5,343C 1386.43,342.779 1398.93,337.279 1409,326.5C 1413.12,320.48 1415.45,313.813 1416,306.5C 1416.5,252.168 1416.67,197.834 1416.5,143.5C 1420.83,143.5 1425.17,143.5 1429.5,143.5C 1429.67,198.168 1429.5,252.834 1429,307.5C 1424.6,337.232 1407.44,353.065 1377.5,355C 1352.5,355.667 1327.5,355.667 1302.5,355C 1274.14,351.639 1257.97,335.806 1254,307.5C 1253.5,252.834 1253.33,198.168 1253.5,143.5 Z"/></g>
<g><path style="opacity:1" fill="#fcfdfe" d="M 1536.5,143.5 C 1560.84,143.333 1585.17,143.5 1609.5,144C 1634.59,143.785 1650.42,155.618 1657,179.5C 1659.36,190.762 1659.86,202.096 1658.5,213.5C 1605.5,236.833 1552.5,260.167 1499.5,283.5C 1497.78,298.872 1500.28,313.538 1507,327.5C 1515.35,337.59 1526.18,342.757 1539.5,343C 1579.5,343.5 1619.5,343.667 1659.5,343.5C 1659.5,347.5 1659.5,351.5 1659.5,355.5C 1617.14,355.955 1574.81,355.455 1532.5,354C 1507.83,350.33 1492.33,336.497 1486,312.5C 1485.03,269.795 1485.36,227.129 1487,184.5C 1490.72,166.45 1501.22,154.283 1518.5,148C 1524.6,146.382 1530.6,144.882 1536.5,143.5 Z"/></g>
<g><path style="opacity:1" fill="#fdfefe" d="M 1753.5,143.5 C 1761.17,143.5 1768.83,143.5 1776.5,143.5C 1776.5,147.833 1776.5,152.167 1776.5,156.5C 1767.83,156.334 1759.16,156.5 1750.5,157C 1730.23,161.278 1719.06,173.778 1717,194.5C 1716.5,248.166 1716.33,301.832 1716.5,355.5C 1712.5,355.5 1708.5,355.5 1704.5,355.5C 1704.33,300.499 1704.5,245.499 1705,190.5C 1709.57,162.759 1725.74,147.092 1753.5,143.5 Z"/></g>
<g><path style="opacity:1" fill="#fdfefe" d="M 1853.5,342.5 C 1890,343.498 1926.66,343.832 1963.5,343.5C 1963.5,276.833 1963.5,210.167 1963.5,143.5C 1967.5,143.5 1971.5,143.5 1975.5,143.5C 1975.67,221.501 1975.5,299.501 1975,377.5C 1971.47,406.706 1954.97,422.539 1925.5,425C 1884.5,425.5 1843.5,425.667 1802.5,425.5C 1802.5,421.167 1802.5,416.833 1802.5,412.5C 1843.34,412.832 1884,412.499 1924.5,411.5C 1944.48,410.619 1956.98,400.619 1962,381.5C 1962.5,372.84 1962.67,364.173 1962.5,355.5C 1924.83,355.667 1887.17,355.5 1849.5,355C 1823.99,351.153 1808.49,336.653 1803,311.5C 1802.5,255.501 1802.33,199.501 1802.5,143.5C 1806.5,143.5 1810.5,143.5 1814.5,143.5C 1814.03,200.195 1814.53,256.862 1816,313.5C 1821.63,331.914 1834.13,341.58 1853.5,342.5 Z"/></g>
<g><path style="opacity:1" fill="#fdfefe" d="M 2192.5,143.5 C 2215.84,143.333 2239.17,143.5 2262.5,144C 2280.49,144.101 2295.65,150.601 2308,163.5C 2313.55,171.27 2316.88,179.937 2318,189.5C 2318.67,227.167 2318.67,264.833 2318,302.5C 2316.68,329.81 2302.85,346.977 2276.5,354C 2236.53,355.459 2196.53,355.959 2156.5,355.5C 2156.5,378.833 2156.5,402.167 2156.5,425.5C 2152.5,425.5 2148.5,425.5 2144.5,425.5C 2144.02,344.143 2144.52,262.809 2146,181.5C 2153.11,158.532 2168.61,145.865 2192.5,143.5 Z"/></g>
<g><path style="opacity:1" fill="#fdfefe" d="M 2375.5,143.5 C 2417.86,143.057 2460.19,143.557 2502.5,145C 2529.45,148.954 2544.62,164.454 2548,191.5C 2548.67,229.5 2548.67,267.5 2548,305.5C 2545.83,334.666 2530.33,351.166 2501.5,355C 2474.17,355.667 2446.83,355.667 2419.5,355C 2399.71,351.215 2385.88,340.049 2378,321.5C 2376.62,316.92 2375.62,312.253 2375,307.5C 2374.33,291.167 2374.33,274.833 2375,258.5C 2380.13,232.197 2395.97,217.531 2422.5,214.5C 2460.5,214.5 2498.5,214.5 2536.5,214.5C 2536.82,206.981 2536.49,199.648 2535.5,192.5C 2534.46,174.291 2525.13,162.791 2507.5,158C 2502.57,156.84 2497.57,156.34 2492.5,156.5C 2453.67,155.501 2414.67,155.168 2375.5,155.5C 2375.5,151.5 2375.5,147.5 2375.5,143.5 Z"/></g>
<g><path style="opacity:1" fill="#fcfdfe" d="M 2656.5,342.5 C 2685.33,343.498 2714.33,343.831 2743.5,343.5C 2743.5,347.5 2743.5,351.5 2743.5,355.5C 2712.83,355.667 2682.16,355.5 2651.5,355C 2623.79,350.626 2608.29,334.46 2605,306.5C 2604.33,267.167 2604.33,227.833 2605,188.5C 2608.51,162.327 2623.34,147.494 2649.5,144C 2680.5,143.5 2711.5,143.333 2742.5,143.5C 2742.5,147.833 2742.5,152.167 2742.5,156.5C 2711.83,156.333 2681.16,156.5 2650.5,157C 2630.88,160.288 2619.71,171.788 2617,191.5C 2616.04,230.533 2616.37,269.533 2618,308.5C 2622.6,329.275 2635.44,340.608 2656.5,342.5 Z"/></g>
<g><path style="opacity:1" fill="#fbfdfe" d="M 2914.5,143.5 C 2920.51,143.334 2926.51,143.501 2932.5,144C 2893.5,179 2854.5,214 2815.5,249C 2855.5,284.333 2895.5,319.667 2935.5,355C 2928.83,355.667 2922.17,355.667 2915.5,355C 2878.83,322.333 2842.17,289.667 2805.5,257C 2802.17,252.863 2801.67,248.363 2804,243.5C 2805.81,240.72 2807.98,238.22 2810.5,236C 2845.43,205.384 2880.09,174.551 2914.5,143.5 Z"/></g>
<g><path style="opacity:1" fill="#fbfdfe" d="M 3011.5,214.5 C 3049.5,214.5 3087.5,214.5 3125.5,214.5C 3125.83,206.316 3125.49,198.316 3124.5,190.5C 3122.52,173.353 3113.19,162.52 3096.5,158C 3052.54,156.526 3008.54,156.026 2964.5,156.5C 2964.5,152.167 2964.5,147.833 2964.5,143.5C 3006.53,143.045 3048.53,143.545 3090.5,145C 3118.49,148.66 3133.99,164.493 3137,192.5C 3137.67,232.167 3137.67,271.833 3137,311.5C 3132.75,338.085 3117.25,352.585 3090.5,355C 3063.17,355.667 3035.83,355.667 3008.5,355C 2982.99,349.156 2968.16,333.323 2964,307.5C 2963.33,292.167 2963.33,276.833 2964,261.5C 2967.73,233.6 2983.57,217.933 3011.5,214.5 Z"/></g>
<g><path style="opacity:1" fill="#fafcfe" d="M 3243.5,143.5 C 3264.5,143.333 3285.5,143.5 3306.5,144C 3323.32,144.699 3338.65,149.699 3352.5,159C 3361.88,168.927 3367.04,180.761 3368,194.5C 3368.67,255.833 3368.67,317.167 3368,378.5C 3367.54,389.773 3364.87,400.439 3360,410.5C 3357.26,412.788 3354.42,414.955 3351.5,417C 3343.09,420.268 3334.43,422.602 3325.5,424C 3281.52,425.408 3237.52,425.908 3193.5,425.5C 3193.5,421.5 3193.5,417.5 3193.5,413.5C 3233.17,413.667 3272.83,413.5 3312.5,413C 3336.8,411.808 3350.63,399.308 3354,375.5C 3354.5,368.842 3354.67,362.175 3354.5,355.5C 3313.8,355.959 3273.14,355.459 3232.5,354C 3208.19,346.66 3195.35,330.16 3194,304.5C 3193.06,264.812 3193.39,225.145 3195,185.5C 3198.27,166.9 3208.77,154.4 3226.5,148C 3232.25,146.314 3237.92,144.814 3243.5,143.5 Z"/></g>
<g><path style="opacity:1" fill="#fcfdfe" d="M 3475.5,143.5 C 3503.19,143.092 3530.86,143.592 3558.5,145C 3576.08,147.517 3587.91,157.017 3594,173.5C 3598.28,186.559 3599.44,199.893 3597.5,213.5C 3544.17,236.833 3490.83,260.167 3437.5,283.5C 3436.47,299.64 3439.64,314.974 3447,329.5C 3455.63,338.23 3466.13,342.73 3478.5,343C 3518.5,343.5 3558.5,343.667 3598.5,343.5C 3598.5,347.5 3598.5,351.5 3598.5,355.5C 3556.14,355.955 3513.81,355.455 3471.5,354C 3441.79,348.627 3425.79,330.961 3423.5,301C 3424,261.804 3424.83,222.638 3426,183.5C 3429.7,167.136 3439.2,155.636 3454.5,149C 3461.52,146.731 3468.52,144.897 3475.5,143.5 Z"/></g>
<g><path style="opacity:1" fill="#fbfdfe" d="M 3676.5,143.5 C 3714.5,143.5 3752.5,143.5 3790.5,143.5C 3790.5,147.833 3790.5,152.167 3790.5,156.5C 3751.83,156.333 3713.17,156.5 3674.5,157C 3659.52,158.986 3649.68,167.152 3645,181.5C 3644.33,192.167 3644.33,202.833 3645,213.5C 3648.81,228.97 3658.64,237.803 3674.5,240C 3699.17,240.333 3723.83,240.667 3748.5,241C 3769.27,242.789 3782.44,253.622 3788,273.5C 3789.58,287.453 3789.91,301.453 3789,315.5C 3784.79,339.375 3770.62,352.542 3746.5,355C 3708.5,355.5 3670.5,355.667 3632.5,355.5C 3632.5,351.5 3632.5,347.5 3632.5,343.5C 3672.19,343.952 3711.86,343.452 3751.5,342C 3765.66,338.173 3773.83,329.007 3776,314.5C 3776.85,303.456 3776.52,292.456 3775,281.5C 3773.03,266.869 3764.87,258.035 3750.5,255C 3727.17,254.667 3703.83,254.333 3680.5,254C 3645.71,250.473 3629.37,231.139 3631.5,196C 3630.1,172.759 3640.1,156.759 3661.5,148C 3666.65,146.558 3671.65,145.058 3676.5,143.5 Z"/></g>
<g><path style="opacity:1" fill="#cfe8f4" d="M 2375.5,143.5 C 2375.5,147.5 2375.5,151.5 2375.5,155.5C 2414.67,155.168 2453.67,155.501 2492.5,156.5C 2453.17,156.5 2413.83,156.5 2374.5,156.5C 2374.18,151.968 2374.52,147.634 2375.5,143.5 Z"/></g>
<g><path style="opacity:1" fill="#1993d1" d="M 258.5,156.5 C 283.169,156.333 307.836,156.5 332.5,157C 352.235,159.404 364.401,170.238 369,189.5C 369.5,240.832 369.667,292.166 369.5,343.5C 332.165,343.667 294.832,343.5 257.5,343C 234.199,339.693 222.032,326.193 221,302.5C 220.333,266.167 220.333,229.833 221,193.5C 222.978,178.672 230.478,167.838 243.5,161C 248.482,159.01 253.482,157.51 258.5,156.5 Z"/></g>
<g><path style="opacity:1" fill="#1993d1" d="M 487.5,156.5 C 513.864,156.075 540.197,156.575 566.5,158C 586.121,161.288 597.288,172.788 600,192.5C 600.957,231.529 600.624,270.529 599,309.5C 596.366,327.466 586.199,338.299 568.5,342C 529.534,343.464 490.534,343.964 451.5,343.5C 451.333,292.166 451.5,240.832 452,189.5C 456.623,170.709 468.456,159.709 487.5,156.5 Z"/></g>
<g><path style="opacity:1" fill="#1793d1" d="M 1183.5,193.5 C 1183.5,243.167 1183.5,292.833 1183.5,342.5C 1146.17,342.5 1108.83,342.5 1071.5,342.5C 1050.93,339.766 1039.1,328.099 1036,307.5C 1035.33,268.5 1035.33,229.5 1036,190.5C 1040.16,170.676 1052.33,159.509 1072.5,157C 1097.17,156.333 1121.83,156.333 1146.5,157C 1168.65,159.32 1180.99,171.487 1183.5,193.5 Z"/></g>
<g><path style="opacity:1" fill="#1993d1" d="M 1537.5,156.5 C 1563.19,156.089 1588.86,156.589 1614.5,158C 1639.48,164.169 1649.82,180.002 1645.5,205.5C 1596.37,227.402 1547.03,248.735 1497.5,269.5C 1497.33,243.498 1497.5,217.498 1498,191.5C 1502.26,169.739 1515.43,158.072 1537.5,156.5 Z"/></g>
<g><path style="opacity:1" fill="#1893d1" d="M 2192.5,156.5 C 2219.19,156.085 2245.86,156.585 2272.5,158C 2291.59,161.758 2302.43,173.258 2305,192.5C 2305.96,231.866 2305.63,271.2 2304,310.5C 2300.95,327.883 2290.78,338.383 2273.5,342C 2234.53,343.464 2195.53,343.964 2156.5,343.5C 2156.33,292.499 2156.5,241.499 2157,190.5C 2161.21,171.123 2173.04,159.79 2192.5,156.5 Z"/></g>
<g><path style="opacity:1" fill="#1793d1" d="M 3354.5,199.5 C 3354.5,247.167 3354.5,294.833 3354.5,342.5C 3319.17,342.5 3283.83,342.5 3248.5,342.5C 3225.08,342.556 3211.24,331.223 3207,308.5C 3206.33,268.5 3206.33,228.5 3207,188.5C 3210.52,169.971 3221.69,159.471 3240.5,157C 3267.87,156.053 3295.2,156.386 3322.5,158C 3343.84,163.494 3354.51,177.327 3354.5,199.5 Z"/></g>
<g><path style="opacity:1" fill="#1893d1" d="M 3476.5,156.5 C 3499.84,156.333 3523.17,156.5 3546.5,157C 3575.35,160.549 3588.02,176.716 3584.5,205.5C 3535.21,227.037 3485.88,248.37 3436.5,269.5C 3436.33,243.165 3436.5,216.831 3437,190.5C 3438.83,176.336 3446.33,166.502 3459.5,161C 3465.18,159 3470.84,157.5 3476.5,156.5 Z"/></g>
<g><path style="opacity:1" fill="#75bee3" d="M 1183.5,193.5 C 1184.5,243.331 1184.83,293.331 1184.5,343.5C 1146.66,343.832 1109,343.498 1071.5,342.5C 1108.83,342.5 1146.17,342.5 1183.5,342.5C 1183.5,292.833 1183.5,243.167 1183.5,193.5 Z"/></g>
<g><path style="opacity:1" fill="#78bfe3" d="M 2535.5,192.5 C 2536.49,199.648 2536.82,206.981 2536.5,214.5C 2498.5,214.5 2460.5,214.5 2422.5,214.5C 2460,213.502 2497.66,213.168 2535.5,213.5C 2535.5,206.5 2535.5,199.5 2535.5,192.5 Z"/></g>
<g><path style="opacity:1" fill="#73bce2" d="M 3124.5,190.5 C 3125.49,198.316 3125.83,206.316 3125.5,214.5C 3087.5,214.5 3049.5,214.5 3011.5,214.5C 3049,213.502 3086.66,213.168 3124.5,213.5C 3124.5,205.833 3124.5,198.167 3124.5,190.5 Z"/></g>
<g><path style="opacity:1" fill="#1993d1" d="M 2421.5,226.5 C 2459.5,226.5 2497.5,226.5 2535.5,226.5C 2535.67,254.169 2535.5,281.835 2535,309.5C 2533.07,330.425 2521.57,341.592 2500.5,343C 2475.5,343.667 2450.5,343.667 2425.5,343C 2403.98,340.471 2391.14,328.638 2387,307.5C 2386.33,292.167 2386.33,276.833 2387,261.5C 2390.64,242.027 2402.14,230.361 2421.5,226.5 Z"/></g>
<g><path style="opacity:1" fill="#1993d1" d="M 3011.5,226.5 C 3049.17,226.5 3086.83,226.5 3124.5,226.5C 3124.67,254.835 3124.5,283.169 3124,311.5C 3122.19,328.311 3113.02,338.478 3096.5,342C 3081.87,343.114 3067.2,343.614 3052.5,343.5C 3039.83,343.333 3027.17,343.167 3014.5,343C 2994.32,340.852 2981.82,330.018 2977,310.5C 2976.33,293.167 2976.33,275.833 2977,258.5C 2981.32,240.015 2992.82,229.348 3011.5,226.5 Z"/></g>
<g><path style="opacity:1" fill="#fefefe" d="M 768.5,234.5 C 801.833,234.5 835.167,234.5 868.5,234.5C 868.5,239.167 868.5,243.833 868.5,248.5C 835.167,248.5 801.833,248.5 768.5,248.5C 768.5,243.833 768.5,239.167 768.5,234.5 Z"/></g>
<g><path style="opacity:1" fill="#8ac7e7" d="M 1963.5,143.5 C 1963.5,210.167 1963.5,276.833 1963.5,343.5C 1926.66,343.832 1890,343.498 1853.5,342.5C 1889.83,342.5 1926.17,342.5 1962.5,342.5C 1962.17,275.998 1962.5,209.665 1963.5,143.5 Z"/></g>
<g><path style="opacity:1" fill="#80c3e5" d="M 2656.5,342.5 C 2685.83,342.5 2715.17,342.5 2744.5,342.5C 2744.82,347.032 2744.48,351.366 2743.5,355.5C 2743.5,351.5 2743.5,347.5 2743.5,343.5C 2714.33,343.831 2685.33,343.498 2656.5,342.5 Z"/></g>
<g><path style="opacity:1" fill="#8ac7e7" d="M 3354.5,199.5 C 3355.5,247.33 3355.83,295.33 3355.5,343.5C 3319.66,343.832 3284,343.498 3248.5,342.5C 3283.83,342.5 3319.17,342.5 3354.5,342.5C 3354.5,294.833 3354.5,247.167 3354.5,199.5 Z"/></g>
<g><path style="opacity:1" fill="#a4d4ec" d="M 1924.5,411.5 C 1884,412.499 1843.34,412.832 1802.5,412.5C 1802.5,416.833 1802.5,421.167 1802.5,425.5C 1801.51,421.03 1801.18,416.363 1801.5,411.5C 1842.5,411.5 1883.5,411.5 1924.5,411.5 Z"/></g>
</svg>
